<svg width="168" height="26" viewBox="0 0 168 26" fill="none" xmlns="http://www.w3.org/2000/svg">
<path fill-rule="evenodd" clip-rule="evenodd" d="M13.4059 12.9821H16.5187C16.4008 11.8854 16.1178 10.9376 15.6697 10.1389C15.2217 9.34021 14.6498 8.67859 13.9542 8.15406C13.2585 7.62952 12.4568 7.24209 11.5489 6.99175C10.641 6.7414 9.66831 6.61623 8.63073 6.61623C7.19227 6.61623 5.93069 6.87253 4.84594 7.38514C3.7612 7.89776 2.85923 8.6011 2.14 9.49519C1.42077 10.3893 0.884298 11.4383 0.530578 12.6424C0.176858 13.8464 0 15.1398 0 16.5227C0 17.9056 0.182753 19.1751 0.548264 20.3315C0.913775 21.4879 1.45614 22.4833 2.17537 23.3177C2.8946 24.1522 3.79068 24.796 4.86363 25.249C5.93658 25.702 7.16869 25.9285 8.55999 25.9285C10.8945 25.9285 12.7398 25.3086 14.0957 24.0688C15.4516 22.829 16.2946 21.0647 16.6248 18.7758H13.5474C13.3588 20.2063 12.8459 21.315 12.0087 22.1018C11.1716 22.8886 10.0102 23.282 8.52462 23.282C7.58136 23.282 6.76782 23.0912 6.08396 22.7098C5.4001 22.3283 4.84595 21.8216 4.42148 21.1898C3.99702 20.558 3.68457 19.8368 3.48413 19.0261C3.28369 18.2155 3.18347 17.381 3.18347 16.5227C3.18347 15.5928 3.27779 14.6928 3.46644 13.8226C3.65509 12.9523 3.96754 12.1834 4.4038 11.5158C4.84005 10.8482 5.42368 10.3118 6.1547 9.90646C6.88573 9.50114 7.79359 9.29849 8.87834 9.29849C10.1517 9.29849 11.1657 9.62035 11.9203 10.2641C12.6749 10.9078 13.1701 11.8138 13.4059 12.9821ZM21.6255 16.3081C21.6255 15.1875 21.7729 14.1921 22.0676 13.3219C22.3624 12.4516 22.7692 11.7185 23.2879 11.1224C23.8067 10.5264 24.4139 10.0734 25.1096 9.76341C25.8052 9.45346 26.5422 9.29849 27.3203 9.29849C28.0985 9.29849 28.8354 9.45346 29.5311 9.76341C30.2267 10.0734 30.8339 10.5264 31.3527 11.1224C31.8715 11.7185 32.2783 12.4516 32.5731 13.3219C32.8678 14.1921 33.0152 15.1875 33.0152 16.3081C33.0152 17.4287 32.8678 18.4241 32.5731 19.2944C32.2783 20.1646 31.8715 20.8918 31.3527 21.4759C30.8339 22.0601 30.2267 22.5071 29.5311 22.8171C28.8354 23.127 28.0985 23.282 27.3203 23.282C26.5422 23.282 25.8052 23.127 25.1096 22.8171C24.4139 22.5071 23.8067 22.0601 23.2879 21.4759C22.7692 20.8918 22.3624 20.1646 22.0676 19.2944C21.7729 18.4241 21.6255 17.4287 21.6255 16.3081ZM18.442 16.3081C18.442 17.6671 18.6306 18.9308 19.008 20.099C19.3853 21.2673 19.9512 22.2866 20.7058 23.1568C21.4604 24.0271 22.3919 24.7066 23.5002 25.1953C24.6085 25.6841 25.8819 25.9285 27.3203 25.9285C28.7824 25.9285 30.0617 25.6841 31.1582 25.1953C32.2547 24.7066 33.1803 24.0271 33.9349 23.1568C34.6895 22.2866 35.2554 21.2673 35.6327 20.099C36.01 18.9308 36.1987 17.6671 36.1987 16.3081C36.1987 14.9491 36.01 13.6795 35.6327 12.4993C35.2554 11.3191 34.6895 10.2939 33.9349 9.42366C33.1803 8.55341 32.2547 7.86795 31.1582 7.36726C30.0617 6.86657 28.7824 6.61623 27.3203 6.61623C25.8819 6.61623 24.6085 6.86657 23.5002 7.36726C22.3919 7.86795 21.4604 8.55341 20.7058 9.42366C19.9512 10.2939 19.3853 11.3191 19.008 12.4993C18.6306 13.6795 18.442 14.9491 18.442 16.3081ZM39.1832 7.04539V25.5351H42.1898V14.0193C42.1898 13.6616 42.2782 13.2146 42.4551 12.6781C42.6319 12.1417 42.9149 11.6231 43.304 11.1224C43.6931 10.6217 44.2001 10.1926 44.825 9.83494C45.4499 9.4773 46.1986 9.29849 47.0711 9.29849C47.755 9.29849 48.315 9.39982 48.7513 9.60248C49.1875 9.80514 49.5353 10.0912 49.7947 10.4608C50.0541 10.8304 50.2369 11.2655 50.343 11.7662C50.4491 12.2669 50.5022 12.8152 50.5022 13.4113V25.5351H53.5088V14.0193C53.5088 12.5887 53.9332 11.4443 54.7822 10.586C55.6311 9.72764 56.7984 9.29849 58.284 9.29849C59.015 9.29849 59.6104 9.40578 60.0703 9.62036C60.5301 9.83494 60.8897 10.127 61.1491 10.4966C61.4085 10.8661 61.5854 11.3012 61.6797 11.8019C61.774 12.3026 61.8212 12.8391 61.8212 13.4113V25.5351H64.8278V11.9807C64.8278 11.027 64.6804 10.2105 64.3856 9.53095C64.0909 8.85144 63.6782 8.29711 63.1476 7.86795C62.617 7.43879 61.9803 7.12288 61.2375 6.92022C60.4947 6.71756 59.6635 6.61623 58.7438 6.61623C57.5412 6.61623 56.4388 6.89041 55.4365 7.43879C54.4343 7.98716 53.6267 8.76203 53.0136 9.76341C52.6363 8.61898 51.9878 7.80835 51.0681 7.3315C50.1484 6.85465 49.1227 6.61623 47.9908 6.61623C45.4204 6.61623 43.4514 7.66528 42.0837 9.76341H42.0129V7.04539H39.1832ZM81.5012 14.5199H70.9957C71.0429 13.8047 71.1962 13.1311 71.4556 12.4993C71.715 11.8675 72.0687 11.3132 72.5167 10.8363C72.9648 10.3595 73.5012 9.98395 74.1262 9.70977C74.7511 9.43558 75.4526 9.29849 76.2308 9.29849C76.9854 9.29849 77.6751 9.43558 78.3 9.70977C78.9249 9.98395 79.4673 10.3535 79.9271 10.8184C80.387 11.2834 80.7525 11.8377 81.0237 12.4814C81.2948 13.1252 81.454 13.8047 81.5012 14.5199ZM84.4017 19.6699H81.4304C81.171 20.8858 80.6346 21.7918 79.821 22.3879C79.0075 22.984 77.964 23.282 76.6906 23.282C75.7002 23.282 74.8395 23.1151 74.1085 22.7813C73.3774 22.4475 72.7761 22.0005 72.3045 21.4402C71.8329 20.8799 71.4909 20.2361 71.2787 19.5089C71.0665 18.7817 70.9722 18.0128 70.9957 17.2022H84.6846C84.7318 16.0816 84.6316 14.9014 84.384 13.6616C84.1364 12.4218 83.6883 11.2774 83.0399 10.2283C82.3914 9.17927 81.5307 8.315 80.4577 7.63549C79.3848 6.95598 78.0348 6.61623 76.4076 6.61623C75.1578 6.61623 74.0082 6.85465 72.9589 7.3315C71.9095 7.80835 71.0016 8.47592 70.2352 9.33425C69.4688 10.1926 68.8734 11.2059 68.449 12.3741C68.0245 13.5424 67.8123 14.8299 67.8123 16.2366C67.8594 17.6433 68.0658 18.9427 68.4313 20.1348C68.7968 21.3269 69.345 22.3521 70.0761 23.2105C70.8071 24.0688 71.7091 24.7364 72.782 25.2132C73.855 25.6901 75.1225 25.9285 76.5845 25.9285C78.6597 25.9285 80.3811 25.4039 81.7488 24.3549C83.1165 23.3058 84.0008 21.7442 84.4017 19.6699ZM91.4186 7.04539V1.50206H88.412V7.04539H85.2992V9.72765H88.412V21.4938C88.412 22.3521 88.4945 23.0436 88.6596 23.5681C88.8246 24.0926 89.0781 24.4979 89.4201 24.784C89.762 25.0702 90.21 25.2668 90.7642 25.3741C91.3184 25.4814 91.9845 25.5351 92.7627 25.5351H95.0619V22.8528H93.6824C93.2107 22.8528 92.8275 22.8349 92.5328 22.7992C92.238 22.7634 92.0081 22.6859 91.843 22.5667C91.678 22.4475 91.566 22.2806 91.507 22.066C91.448 21.8514 91.4186 21.5653 91.4186 21.2077V9.72765H95.0619V7.04539H91.4186ZM109.931 13.5543H114.848C114.777 12.3622 114.494 11.331 113.999 10.4608C113.504 9.59055 112.861 8.86337 112.071 8.27923C111.281 7.69509 110.385 7.25997 109.383 6.97387C108.381 6.68776 107.337 6.5447 106.253 6.5447C104.767 6.5447 103.446 6.79505 102.291 7.29574C101.136 7.79643 100.157 8.49381 99.3551 9.3879C98.5534 10.282 97.9462 11.343 97.5335 12.5708C97.1208 13.7987 96.9145 15.1279 96.9145 16.5585C96.9145 17.9413 97.1385 19.2109 97.5865 20.3673C98.0346 21.5236 98.6595 22.519 99.4612 23.3535C100.263 24.188 101.236 24.8377 102.379 25.3026C103.523 25.7675 104.779 26 106.147 26C108.575 26 110.568 25.3563 112.124 24.0688C113.681 22.7813 114.624 20.9097 114.954 18.4539H110.108C109.943 19.5984 109.536 20.5103 108.888 21.1898C108.239 21.8693 107.314 22.2091 106.111 22.2091C105.333 22.2091 104.673 22.0303 104.13 21.6726C103.588 21.315 103.158 20.856 102.839 20.2957C102.521 19.7354 102.291 19.1096 102.15 18.4182C102.008 17.7267 101.937 17.0472 101.937 16.3796C101.937 15.6882 102.008 14.9908 102.15 14.2875C102.291 13.5841 102.533 12.9404 102.875 12.3563C103.217 11.7721 103.659 11.2953 104.201 10.9257C104.743 10.5562 105.415 10.3714 106.217 10.3714C108.363 10.3714 109.601 11.4324 109.931 13.5543ZM117.231 0V25.5351H122.254V15.8432C122.254 13.9596 122.561 12.6066 123.174 11.784C123.787 10.9615 124.777 10.5502 126.145 10.5502C127.348 10.5502 128.185 10.9257 128.656 11.6768C129.128 12.4278 129.364 13.5662 129.364 15.0922V25.5351H134.387V14.1623C134.387 13.0179 134.286 11.9748 134.086 11.033C133.885 10.0912 133.538 9.29253 133.042 8.63686C132.547 7.9812 131.869 7.46859 131.009 7.09904C130.148 6.72948 129.045 6.5447 127.701 6.5447C126.758 6.5447 125.791 6.78908 124.801 7.27785C123.81 7.76662 122.997 8.54745 122.36 9.62036H122.254V0H117.231ZM137.442 12.7318C137.513 11.5397 137.807 10.5502 138.326 9.76341C138.845 8.97661 139.505 8.3448 140.307 7.86795C141.109 7.3911 142.011 7.05135 143.013 6.84869C144.015 6.64603 145.023 6.5447 146.037 6.5447C146.957 6.5447 147.888 6.61027 148.832 6.7414C149.775 6.87254 150.635 7.12884 151.414 7.51032C152.192 7.89179 152.829 8.42228 153.324 9.10179C153.819 9.7813 154.067 10.6813 154.067 11.8019V21.4223C154.067 22.2568 154.114 23.0555 154.208 23.8184C154.302 24.5814 154.467 25.1536 154.703 25.5351H149.61C149.515 25.249 149.439 24.9569 149.38 24.6589C149.321 24.3608 149.28 24.0569 149.256 23.7469C148.454 24.5814 147.511 25.1655 146.426 25.4993C145.341 25.8331 144.233 26 143.101 26C142.229 26 141.415 25.8927 140.661 25.6781C139.906 25.4635 139.246 25.1298 138.68 24.6768C138.114 24.2237 137.672 23.6515 137.353 22.9601C137.035 22.2687 136.876 21.4461 136.876 20.4924C136.876 19.4434 137.059 18.5791 137.424 17.8996C137.79 17.2201 138.261 16.6777 138.839 16.2724C139.417 15.867 140.077 15.563 140.82 15.3604C141.563 15.1577 142.311 14.9968 143.066 14.8776C143.821 14.7584 144.563 14.663 145.294 14.5915C146.025 14.5199 146.674 14.4127 147.24 14.2696C147.806 14.1265 148.254 13.9179 148.584 13.6437C148.914 13.3696 149.067 12.9702 149.044 12.4457C149.044 11.8973 148.955 11.4622 148.778 11.1403C148.602 10.8184 148.366 10.5681 148.071 10.3893C147.776 10.2105 147.434 10.0912 147.045 10.0316C146.656 9.97203 146.238 9.94223 145.79 9.94223C144.799 9.94223 144.021 10.1568 143.455 10.586C142.889 11.0151 142.559 11.7304 142.465 12.7318H137.442ZM149.044 16.4869C148.832 16.6777 148.566 16.8267 148.248 16.934C147.93 17.0413 147.588 17.1307 147.222 17.2022C146.857 17.2737 146.473 17.3333 146.073 17.381C145.672 17.4287 145.271 17.4883 144.87 17.5598C144.493 17.6314 144.121 17.7267 143.756 17.8459C143.39 17.9652 143.072 18.1261 142.801 18.3287C142.529 18.5314 142.311 18.7877 142.146 19.0977C141.981 19.4076 141.899 19.801 141.899 20.2779C141.899 20.7309 141.981 21.1123 142.146 21.4223C142.311 21.7322 142.535 21.9766 142.818 22.1554C143.101 22.3343 143.431 22.4594 143.809 22.5309C144.186 22.6025 144.575 22.6382 144.976 22.6382C145.966 22.6382 146.733 22.4713 147.275 22.1376C147.818 21.8038 148.218 21.4044 148.478 20.9395C148.737 20.4746 148.896 20.0037 148.955 19.5268C149.014 19.05 149.044 18.6685 149.044 18.3824V16.4869ZM163.772 7.04539V1.50206H158.749V7.04539H155.707V10.4429H158.749V21.3508C158.749 22.2806 158.902 23.0316 159.209 23.6039C159.515 24.1761 159.934 24.6171 160.464 24.9271C160.995 25.237 161.608 25.4457 162.304 25.553C162.999 25.6602 163.736 25.7139 164.515 25.7139C165.01 25.7139 165.517 25.702 166.035 25.6781C166.554 25.6543 167.026 25.6066 167.45 25.5351V21.6011C167.215 21.6488 166.967 21.6845 166.708 21.7084C166.448 21.7322 166.177 21.7442 165.894 21.7442C165.045 21.7442 164.479 21.6011 164.196 21.315C163.913 21.0289 163.772 20.4567 163.772 19.5983V10.4429H167.45V7.04539H163.772Z" fill="#FAFAFF"/>
</svg>
